<svg xmlns="http://www.w3.org/2000/svg" xmlns:xlink="http://www.w3.org/1999/xlink" width="48" zoomAndPan="magnify" viewBox="0 0 36 36.000001" height="48" preserveAspectRatio="xMidYMid meet" version="1.0"><defs><g/><clipPath id="b45fd924c8"><path d="M 1.722656 1.238281 L 34.265625 1.238281 L 34.265625 33.78125 L 1.722656 33.78125 Z M 1.722656 1.238281 " clip-rule="nonzero"/></clipPath><clipPath id="9cdf5215e0"><path d="M 17.996094 1.238281 C 9.007812 1.238281 1.722656 8.523438 1.722656 17.507812 C 1.722656 26.496094 9.007812 33.78125 17.996094 33.78125 C 26.980469 33.78125 34.265625 26.496094 34.265625 17.507812 C 34.265625 8.523438 26.980469 1.238281 17.996094 1.238281 Z M 17.996094 1.238281 " clip-rule="nonzero"/></clipPath></defs><g clip-path="url(#b45fd924c8)"><g clip-path="url(#9cdf5215e0)"><path stroke-linecap="butt" transform="matrix(0.72973, 0, 0, 0.72973, 1.724411, 1.237927)" fill="none" stroke-linejoin="miter" d="M 22.298234 0.00048574 C 9.980959 0.00048574 -0.00240445 9.983849 -0.00240445 22.295771 C -0.00240445 34.613046 9.980959 44.596409 22.298234 44.596409 C 34.610156 44.596409 44.593519 34.613046 44.593519 22.295771 C 44.593519 9.983849 34.610156 0.00048574 22.298234 0.00048574 Z M 22.298234 0.00048574 " stroke="#000000" stroke-width="8" stroke-opacity="1" stroke-miterlimit="4"/></g></g><g fill="#000000" fill-opacity="1"><g transform="translate(26.706982, 7.045279)"><g><path d="M -3.921875 20.53125 L -8.84375 6.703125 L -8.90625 6.703125 L -13.484375 20.53125 L -17.78125 20.53125 L -9.796875 -0.546875 L -7.46875 -0.546875 L 0.375 20.53125 Z M -3.921875 20.53125 "/></g></g></g></svg>