<svg xmlns="http://www.w3.org/2000/svg" xmlns:xlink="http://www.w3.org/1999/xlink" width="500" zoomAndPan="magnify" viewBox="0 0 375 374.999991" height="500" preserveAspectRatio="xMidYMid meet" version="1.0"><defs><g/><clipPath id="e113fe2099"><path d="M 254.074219 157.121094 L 260.824219 157.121094 L 260.824219 163.871094 L 254.074219 163.871094 Z M 254.074219 157.121094 " clip-rule="nonzero"/></clipPath></defs><g fill="#000000" fill-opacity="1"><g transform="translate(96.428583, 214.825591)"><g><path d="M 17.703125 -56.546875 L 17.703125 -9.078125 C 17.703125 -4.328125 16.535156 -0.65625 14.203125 1.9375 C 11.878906 4.539062 8.84375 5.84375 5.09375 5.84375 C 3.195312 5.84375 1.410156 5.441406 -0.265625 4.640625 C -1.941406 3.847656 -3.503906 2.851562 -4.953125 1.65625 L -1.421875 -3.21875 C -0.078125 -1.96875 1.066406 -1.117188 2.015625 -0.671875 C 2.972656 -0.222656 4.050781 0 5.25 0 C 7.445312 0 9.019531 -0.898438 9.96875 -2.703125 C 10.925781 -4.503906 11.40625 -7.253906 11.40625 -10.953125 L 11.40625 -56.546875 Z M 17.703125 -56.546875 "/></g></g></g><g fill="#000000" fill-opacity="1"><g transform="translate(119.978554, 214.825591)"><g><path d="M 11.84375 -56.546875 L 11.84375 -21.671875 C 11.84375 -16.972656 12.367188 -13.625 13.421875 -11.625 C 14.472656 -9.625 16.160156 -8 18.484375 -6.75 C 20.804688 -5.5 23.21875 -4.875 25.71875 -4.875 C 28.070312 -4.875 30.285156 -5.398438 32.359375 -6.453125 C 34.429688 -7.503906 35.957031 -8.664062 36.9375 -9.9375 C 37.914062 -11.207031 38.601562 -12.664062 39 -14.3125 C 39.394531 -15.96875 39.59375 -18.472656 39.59375 -21.828125 L 39.59375 -56.546875 L 45.90625 -56.546875 L 45.90625 -20.46875 C 45.90625 -16.769531 45.515625 -13.78125 44.734375 -11.5 C 43.960938 -9.226562 42.597656 -7.101562 40.640625 -5.125 C 38.691406 -3.15625 36.429688 -1.644531 33.859375 -0.59375 C 31.285156 0.445312 28.570312 0.96875 25.71875 0.96875 C 22.175781 0.96875 18.84375 0.132812 15.71875 -1.53125 C 12.59375 -3.207031 10.113281 -5.445312 8.28125 -8.25 C 6.457031 -11.050781 5.546875 -15.175781 5.546875 -20.625 L 5.546875 -56.546875 Z M 11.84375 -56.546875 "/></g></g></g><g fill="#000000" fill-opacity="1"><g transform="translate(171.353505, 214.825591)"><g><path d="M 31.34375 -45.53125 C 30.09375 -47.726562 28.707031 -49.300781 27.1875 -50.25 C 25.664062 -51.195312 23.828125 -51.671875 21.671875 -51.671875 C 18.921875 -51.671875 16.65625 -50.820312 14.875 -49.125 C 13.101562 -47.425781 12.21875 -45.351562 12.21875 -42.90625 C 12.21875 -41 12.957031 -39.367188 14.4375 -38.015625 C 15.914062 -36.671875 17.703125 -35.523438 19.796875 -34.578125 C 21.898438 -33.628906 23.800781 -32.800781 25.5 -32.09375 C 27.195312 -31.394531 29.171875 -30.34375 31.421875 -28.9375 C 33.671875 -27.539062 35.394531 -25.789062 36.59375 -23.6875 C 37.800781 -21.59375 38.40625 -19.195312 38.40625 -16.5 C 38.40625 -13.394531 37.628906 -10.492188 36.078125 -7.796875 C 34.523438 -5.097656 32.375 -2.960938 29.625 -1.390625 C 26.875 0.179688 23.875 0.96875 20.625 0.96875 C 16.175781 0.96875 12.363281 -0.34375 9.1875 -2.96875 C 6.007812 -5.59375 3.945312 -9.15625 3 -13.65625 L 9.15625 -15.375 C 9.65625 -12.269531 10.941406 -9.742188 13.015625 -7.796875 C 15.085938 -5.847656 17.570312 -4.875 20.46875 -4.875 C 23.625 -4.875 26.347656 -5.945312 28.640625 -8.09375 C 30.941406 -10.25 32.09375 -12.851562 32.09375 -15.90625 C 32.09375 -18.601562 31.21875 -20.8125 29.46875 -22.53125 C 27.71875 -24.257812 24.519531 -26.046875 19.875 -27.890625 C 15.226562 -29.742188 11.738281 -31.820312 9.40625 -34.125 C 7.082031 -36.425781 5.921875 -39.425781 5.921875 -43.125 C 5.921875 -47.320312 7.46875 -50.769531 10.5625 -53.46875 C 13.664062 -56.175781 17.394531 -57.53125 21.75 -57.53125 C 24.945312 -57.53125 27.78125 -56.78125 30.25 -55.28125 C 32.726562 -53.78125 34.769531 -51.601562 36.375 -48.75 Z M 31.34375 -45.53125 "/></g></g></g><g fill="#000000" fill-opacity="1"><g transform="translate(260.700368, 160.174384)"><g><path d="M -7.28125 56.546875 L -23.40625 13.421875 L -39.53125 56.546875 L -46.34375 56.546875 L -23.40625 -3.375 L -0.453125 56.546875 Z M -7.875 0 Z M -7.875 0 "/></g></g></g><path fill="#000000" d="M 257.5 160.496094 C 257.886719 160.496094 258.140625 160.285156 258.140625 159.898438 C 258.140625 159.511719 257.886719 159.324219 257.492188 159.324219 L 256.875 159.324219 L 256.875 160.496094 Z M 256.324219 158.824219 L 257.523438 158.824219 C 258.242188 158.824219 258.699219 159.207031 258.699219 159.890625 C 258.699219 160.40625 258.414062 160.730469 258.007812 160.875 L 258.789062 162.167969 L 258.148438 162.167969 L 257.441406 160.988281 C 257.4375 160.984375 257.265625 160.988281 257.261719 160.988281 L 256.875 160.988281 L 256.875 162.167969 L 256.324219 162.167969 L 256.324219 158.824219 " fill-opacity="1" fill-rule="nonzero"/><g clip-path="url(#e113fe2099)"><path fill="#000000" d="M 257.449219 157.699219 C 257.074219 157.699219 256.707031 157.773438 256.363281 157.917969 C 256.03125 158.058594 255.730469 158.261719 255.472656 158.515625 C 255.21875 158.773438 255.015625 159.074219 254.875 159.40625 C 254.730469 159.75 254.65625 160.117188 254.65625 160.492188 C 254.65625 160.871094 254.730469 161.238281 254.875 161.582031 C 255.015625 161.914062 255.21875 162.214844 255.472656 162.46875 C 255.730469 162.726562 256.03125 162.929688 256.363281 163.070312 C 256.707031 163.214844 257.074219 163.289062 257.449219 163.289062 C 257.828125 163.289062 258.195312 163.214844 258.539062 163.070312 C 258.871094 162.929688 259.171875 162.726562 259.425781 162.46875 C 259.683594 162.214844 259.886719 161.914062 260.027344 161.582031 C 260.171875 161.238281 260.246094 160.871094 260.246094 160.492188 C 260.246094 160.117188 260.171875 159.75 260.027344 159.40625 C 259.886719 159.074219 259.683594 158.773438 259.425781 158.515625 C 259.171875 158.261719 258.871094 158.058594 258.539062 157.917969 C 258.195312 157.773438 257.828125 157.699219 257.449219 157.699219 Z M 257.449219 163.867188 C 256.996094 163.867188 256.554688 163.78125 256.136719 163.601562 C 255.734375 163.433594 255.375 163.191406 255.0625 162.878906 C 254.753906 162.570312 254.511719 162.210938 254.339844 161.808594 C 254.164062 161.390625 254.074219 160.949219 254.074219 160.492188 C 254.074219 160.039062 254.164062 159.597656 254.339844 159.179688 C 254.511719 158.777344 254.753906 158.417969 255.0625 158.109375 C 255.375 157.796875 255.734375 157.554688 256.136719 157.382812 C 256.554688 157.207031 256.996094 157.121094 257.449219 157.121094 C 257.90625 157.121094 258.347656 157.207031 258.765625 157.382812 C 259.167969 157.554688 259.527344 157.796875 259.835938 158.109375 C 260.148438 158.417969 260.390625 158.777344 260.558594 159.179688 C 260.734375 159.597656 260.824219 160.039062 260.824219 160.492188 C 260.824219 160.949219 260.734375 161.390625 260.558594 161.808594 C 260.390625 162.210938 260.148438 162.570312 259.835938 162.878906 C 259.527344 163.191406 259.167969 163.433594 258.765625 163.601562 C 258.347656 163.78125 257.90625 163.867188 257.449219 163.867188 " fill-opacity="1" fill-rule="nonzero"/></g></svg>