<svg xmlns="http://www.w3.org/2000/svg" xmlns:xlink="http://www.w3.org/1999/xlink" width="250" zoomAndPan="magnify" viewBox="0 0 187.5 187.499992" preserveAspectRatio="xMidYMid meet" version="1.0" fill="#fff"><defs><g/><clipPath id="3e6a3fa2b6"><path d="M 170.1875 63.199219 L 176.921875 63.199219 L 176.921875 69.933594 L 170.1875 69.933594 Z M 170.1875 63.199219 " clip-rule="nonzero"/></clipPath></defs><g fill-opacity="1"><g transform="translate(12.960612, 120.753593)"><g><path d="M 17.65625 -56.390625 L 17.65625 -9.046875 C 17.65625 -4.304688 16.492188 -0.644531 14.171875 1.9375 C 11.859375 4.53125 8.832031 5.828125 5.09375 5.828125 C 3.195312 5.828125 1.414062 5.425781 -0.25 4.625 C -1.925781 3.832031 -3.488281 2.835938 -4.9375 1.640625 L -1.421875 -3.21875 C -0.078125 -1.96875 1.066406 -1.117188 2.015625 -0.671875 C 2.960938 -0.222656 4.035156 0 5.234375 0 C 7.429688 0 9.003906 -0.894531 9.953125 -2.6875 C 10.898438 -4.488281 11.375 -7.234375 11.375 -10.921875 L 11.375 -56.390625 Z M 17.65625 -56.390625 "/></g></g></g><g fill-opacity="1"><g transform="translate(36.447949, 120.753593)"><g><path d="M 11.8125 -56.390625 L 11.8125 -21.609375 C 11.8125 -16.921875 12.332031 -13.582031 13.375 -11.59375 C 14.425781 -9.601562 16.113281 -7.984375 18.4375 -6.734375 C 20.757812 -5.484375 23.164062 -4.859375 25.65625 -4.859375 C 28 -4.859375 30.203125 -5.378906 32.265625 -6.421875 C 34.335938 -7.472656 35.859375 -8.632812 36.828125 -9.90625 C 37.804688 -11.175781 38.492188 -12.632812 38.890625 -14.28125 C 39.296875 -15.925781 39.5 -18.421875 39.5 -21.765625 L 39.5 -56.390625 L 45.78125 -56.390625 L 45.78125 -20.421875 C 45.78125 -16.734375 45.390625 -13.753906 44.609375 -11.484375 C 43.835938 -9.210938 42.476562 -7.09375 40.53125 -5.125 C 38.59375 -3.15625 36.335938 -1.644531 33.765625 -0.59375 C 31.203125 0.445312 28.5 0.96875 25.65625 0.96875 C 22.113281 0.96875 18.785156 0.132812 15.671875 -1.53125 C 12.554688 -3.195312 10.085938 -5.425781 8.265625 -8.21875 C 6.441406 -11.019531 5.53125 -15.132812 5.53125 -20.5625 L 5.53125 -56.390625 Z M 11.8125 -56.390625 "/></g></g></g><g fill-opacity="1"><g transform="translate(87.686264, 120.753593)"><g><path d="M 31.265625 -45.40625 C 30.015625 -47.59375 28.628906 -49.160156 27.109375 -50.109375 C 25.585938 -51.054688 23.753906 -51.53125 21.609375 -51.53125 C 18.867188 -51.53125 16.613281 -50.679688 14.84375 -48.984375 C 13.070312 -47.296875 12.1875 -45.226562 12.1875 -42.78125 C 12.1875 -40.882812 12.921875 -39.265625 14.390625 -37.921875 C 15.867188 -36.578125 17.65625 -35.429688 19.75 -34.484375 C 21.84375 -33.535156 23.734375 -32.710938 25.421875 -32.015625 C 27.117188 -31.316406 29.085938 -30.269531 31.328125 -28.875 C 33.578125 -27.476562 35.300781 -25.734375 36.5 -23.640625 C 37.695312 -21.546875 38.296875 -19.148438 38.296875 -16.453125 C 38.296875 -13.359375 37.519531 -10.460938 35.96875 -7.765625 C 34.425781 -5.078125 32.285156 -2.945312 29.546875 -1.375 C 26.804688 0.1875 23.8125 0.96875 20.5625 0.96875 C 16.125 0.96875 12.320312 -0.335938 9.15625 -2.953125 C 5.988281 -5.566406 3.929688 -9.117188 2.984375 -13.609375 L 9.125 -15.328125 C 9.625 -12.242188 10.90625 -9.726562 12.96875 -7.78125 C 15.039062 -5.832031 17.523438 -4.859375 20.421875 -4.859375 C 23.554688 -4.859375 26.269531 -5.929688 28.5625 -8.078125 C 30.863281 -10.222656 32.015625 -12.816406 32.015625 -15.859375 C 32.015625 -18.546875 31.140625 -20.75 29.390625 -22.46875 C 27.648438 -24.195312 24.457031 -25.984375 19.8125 -27.828125 C 15.175781 -29.671875 11.695312 -31.738281 9.375 -34.03125 C 7.0625 -36.320312 5.90625 -39.316406 5.90625 -43.015625 C 5.90625 -47.203125 7.453125 -50.640625 10.546875 -53.328125 C 13.640625 -56.023438 17.351562 -57.375 21.6875 -57.375 C 24.882812 -57.375 27.71875 -56.625 30.1875 -55.125 C 32.65625 -53.625 34.6875 -51.457031 36.28125 -48.625 Z M 31.265625 -45.40625 "/></g></g></g><g  fill-opacity="1"><g transform="translate(176.795531, 66.247728)"><g><path d="M -7.25 56.390625 L -23.34375 13.390625 L -39.421875 56.390625 L -46.21875 56.390625 L -23.34375 -3.359375 L -0.453125 56.390625 Z M -7.859375 0 Z M -7.859375 0 "/></g></g></g><path d="M 173.605469 66.570312 C 173.988281 66.570312 174.242188 66.359375 174.242188 65.972656 C 174.242188 65.585938 173.988281 65.402344 173.59375 65.402344 L 172.980469 65.402344 L 172.980469 66.570312 Z M 172.433594 64.902344 L 173.628906 64.902344 C 174.34375 64.902344 174.800781 65.28125 174.800781 65.964844 C 174.800781 66.476562 174.515625 66.800781 174.109375 66.945312 L 174.890625 68.234375 L 174.253906 68.234375 L 173.546875 67.058594 C 173.542969 67.054688 173.371094 67.058594 173.367188 67.058594 L 172.980469 67.058594 L 172.980469 68.234375 L 172.433594 68.234375 L 172.433594 64.902344 " fill-opacity="1" fill-rule="nonzero"/><g clip-path="url(#3e6a3fa2b6)"><path d="M 173.554688 63.777344 C 173.175781 63.777344 172.8125 63.851562 172.46875 63.996094 C 172.136719 64.136719 171.839844 64.339844 171.582031 64.59375 C 171.328125 64.851562 171.125 65.148438 170.984375 65.480469 C 170.839844 65.824219 170.765625 66.191406 170.765625 66.566406 C 170.765625 66.941406 170.839844 67.308594 170.984375 67.652344 C 171.125 67.984375 171.328125 68.28125 171.582031 68.539062 C 171.839844 68.792969 172.136719 68.996094 172.46875 69.136719 C 172.8125 69.28125 173.175781 69.355469 173.554688 69.355469 C 173.929688 69.355469 174.296875 69.28125 174.640625 69.136719 C 174.972656 68.996094 175.269531 68.792969 175.527344 68.539062 C 175.78125 68.28125 175.984375 67.984375 176.125 67.652344 C 176.269531 67.308594 176.34375 66.941406 176.34375 66.566406 C 176.34375 66.191406 176.269531 65.824219 176.125 65.480469 C 175.984375 65.148438 175.78125 64.851562 175.527344 64.59375 C 175.269531 64.339844 174.972656 64.136719 174.640625 63.996094 C 174.296875 63.851562 173.929688 63.777344 173.554688 63.777344 Z M 173.554688 69.933594 C 173.101562 69.933594 172.660156 69.84375 172.242188 69.667969 C 171.84375 69.5 171.484375 69.253906 171.175781 68.945312 C 170.867188 68.636719 170.621094 68.277344 170.453125 67.875 C 170.277344 67.460938 170.1875 67.019531 170.1875 66.566406 C 170.1875 66.113281 170.277344 65.671875 170.453125 65.257812 C 170.621094 64.855469 170.867188 64.496094 171.175781 64.1875 C 171.484375 63.878906 171.84375 63.636719 172.242188 63.464844 C 172.660156 63.289062 173.101562 63.199219 173.554688 63.199219 C 174.007812 63.199219 174.449219 63.289062 174.863281 63.464844 C 175.265625 63.636719 175.625 63.878906 175.933594 64.1875 C 176.242188 64.496094 176.484375 64.855469 176.65625 65.257812 C 176.832031 65.671875 176.921875 66.113281 176.921875 66.566406 C 176.921875 67.019531 176.832031 67.460938 176.65625 67.875 C 176.484375 68.277344 176.242188 68.636719 175.933594 68.945312 C 175.625 69.253906 175.265625 69.5 174.863281 69.667969 C 174.449219 69.84375 174.007812 69.933594 173.554688 69.933594 " fill-opacity="1" fill-rule="nonzero"/></g></svg>